<svg width="32" height="33" viewBox="0 0 32 33" fill="none" xmlns="http://www.w3.org/2000/svg">
<path d="M17.9083 12.5714C18.8038 12.5714 19.5364 11.8643 19.5364 11V7.85714H22.7924C23.6879 7.85714 24.4205 7.15 24.4205 6.28571C24.4205 5.42143 23.6879 4.71429 22.7924 4.71429H19.5364V1.57143C19.5364 0.707143 18.8038 0 17.9083 0C17.0129 0 16.2803 0.707143 16.2803 1.57143V4.71429H13.0243C12.1288 4.71429 11.3962 5.42143 11.3962 6.28571C11.3962 7.15 12.1288 7.85714 13.0243 7.85714H16.2803V11C16.2803 11.8643 17.0129 12.5714 17.9083 12.5714ZM9.76819 26.7143C7.97735 26.7143 6.52841 28.1286 6.52841 29.8571C6.52841 31.5857 7.97735 33 9.76819 33C11.559 33 13.0243 31.5857 13.0243 29.8571C13.0243 28.1286 11.559 26.7143 9.76819 26.7143ZM26.0485 26.7143C24.2577 26.7143 22.8087 28.1286 22.8087 29.8571C22.8087 31.5857 24.2577 33 26.0485 33C27.8393 33 29.3046 31.5857 29.3046 29.8571C29.3046 28.1286 27.8393 26.7143 26.0485 26.7143ZM11.559 18.8571H23.6879C24.9089 18.8571 25.9834 18.2129 26.5369 17.2386L31.8117 7.59C32.0107 7.22665 32.0539 6.80244 31.9321 6.40864C31.8103 6.01484 31.5333 5.68292 31.1605 5.48429C30.9717 5.38448 30.7642 5.32195 30.5501 5.30035C30.3361 5.27876 30.1196 5.29852 29.9136 5.35849C29.7075 5.41846 29.5158 5.51744 29.3497 5.64966C29.1837 5.78187 29.0466 5.94467 28.9464 6.12857L23.6879 15.7143H12.2591L5.32366 1.57143H1.62803C0.732614 1.57143 0 2.27857 0 3.14286C0 4.00714 0.732614 4.71429 1.62803 4.71429H3.25606L9.11698 16.6414L6.91913 20.4757C5.73067 22.5814 7.29358 25.1429 9.76819 25.1429H27.6765C28.572 25.1429 29.3046 24.4357 29.3046 23.5714C29.3046 22.7071 28.572 22 27.6765 22H9.76819L11.559 18.8571Z" fill="black"/>
</svg>
