<svg width="48" height="45" viewBox="0 0 48 45" fill="none" xmlns="http://www.w3.org/2000/svg">
<path d="M22.5885 35.0431C22.5885 35.4007 22.3941 35.732 22.0795 35.9108L14.3272 40.3156C14.0158 40.4926 13.6338 40.4932 13.3243 40.3173L5.56 35.9057C5.25045 35.7298 5.06003 35.4039 5.06003 35.05L5.06003 26.2404C5.06003 25.8828 5.25441 25.5515 5.56907 25.3727L13.3213 20.9679C13.6327 20.791 14.0147 20.7903 14.3242 20.9662L22.0885 25.3779C22.3981 25.5537 22.5885 25.8796 22.5885 26.2335L22.5885 35.0431Z" fill="#F11010"/>
<path d="M42.6168 35.0431C42.6168 35.4007 42.4224 35.732 42.1078 35.9108L34.3555 40.3156C34.0441 40.4926 33.6622 40.4932 33.3526 40.3173L25.5883 35.9057C25.2788 35.7298 25.0883 35.4039 25.0883 35.05L25.0883 26.2404C25.0884 25.8828 25.2827 25.5515 25.5974 25.3727L33.3496 20.9679C33.661 20.791 34.043 20.7903 34.3526 20.9662L42.1168 25.3779C42.4264 25.5537 42.6168 25.8796 42.6168 26.2335L42.6168 35.0431Z" fill="#F11010"/>
<path d="M32.5826 18.0065C32.5826 18.3641 32.3883 18.6954 32.0736 18.8742L24.3214 23.279C24.01 23.4559 23.628 23.4566 23.3184 23.2807L15.5541 18.8691C15.2446 18.6932 15.0542 18.3673 15.0542 18.0134L15.0542 9.20378C15.0542 8.84621 15.2486 8.51487 15.5632 8.33608L23.3154 3.93127C23.6268 3.75433 24.0088 3.75368 24.3184 3.92957L32.0827 8.34123C32.3922 8.51712 32.5826 8.84301 32.5826 9.19689L32.5826 18.0065Z" fill="#F11010"/>
</svg>
