<svg width="35" height="32" viewBox="0 0 35 32" fill="none" xmlns="http://www.w3.org/2000/svg">
<path d="M34.2133 9.81429C33.9638 9.60092 33.6669 9.43171 33.3398 9.31645C33.0126 9.2012 32.6618 9.1422 32.3077 9.14286H26.9231V8C26.9231 5.87827 25.9303 3.84344 24.1631 2.34315C22.3959 0.842855 19.9991 0 17.5 0C15.0008 0 12.604 0.842855 10.8369 2.34315C9.06971 3.84344 8.07692 5.87827 8.07692 8V9.14286H2.69231C1.97826 9.14286 1.29346 9.38367 0.788558 9.81233C0.283653 10.241 0 10.8224 0 11.4286V26.8571C0 29.6429 2.77644 32 6.05769 32H28.9423C30.5295 32.0004 32.0539 31.4736 33.1894 30.5321C33.7609 30.0693 34.2159 29.5129 34.5271 28.8967C34.8383 28.2804 34.9992 27.617 35 26.9464V11.4286C35.0011 11.1287 34.9321 10.8316 34.7971 10.5545C34.6621 10.2774 34.4636 10.0258 34.2133 9.81429ZM10.7692 8C10.7692 6.48448 11.4784 5.03103 12.7406 3.95939C14.0029 2.88775 15.7149 2.28571 17.5 2.28571C19.2851 2.28571 20.9971 2.88775 22.2594 3.95939C23.5216 5.03103 24.2308 6.48448 24.2308 8V9.14286H10.7692V8Z" fill="#F11010"/>
</svg>
