<svg width="116" height="129" viewBox="0 0 116 129" fill="none" xmlns="http://www.w3.org/2000/svg">
<g filter="url(#filter0_f_1495_10748)">
<path d="M18.0723 40.9715L58.0562 17.8868L98.04 40.9715V87.1409L58.0562 110.226L18.0723 87.1409V40.9715Z" stroke="#F11010" stroke-width="5"/>
</g>
<g filter="url(#filter1_f_1495_10748)">
<path d="M16.5723 40.1054L58.0562 16.1547L99.54 40.1054V88.0069L58.0562 111.958L16.5723 88.0069V40.1054Z" stroke="#F11010" stroke-width="2"/>
</g>
<g filter="url(#filter2_f_1495_10748)">
<path d="M16.5723 40.1054L58.0562 16.1547L99.54 40.1054V88.0069L58.0562 111.958L16.5723 88.0069V40.1054Z" stroke="#F11010" stroke-width="2"/>
</g>
<g filter="url(#filter3_f_1495_10748)">
<path d="M18.0723 40.9715L58.0562 17.8868L98.04 40.9715V87.1409L58.0562 110.226L18.0723 87.1409V40.9715Z" stroke="#F11010" stroke-width="5"/>
</g>
<path d="M16.5723 40.1054L58.0562 16.1547L99.54 40.1054V88.0069L58.0562 111.958L16.5723 88.0069V40.1054Z" stroke="white" stroke-width="2"/>
<defs>
<filter id="filter0_f_1495_10748" x="5.57422" y="5" width="104.965" height="118.112" filterUnits="userSpaceOnUse" color-interpolation-filters="sRGB">
<feFlood flood-opacity="0" result="BackgroundImageFix"/>
<feBlend mode="normal" in="SourceGraphic" in2="BackgroundImageFix" result="shape"/>
<feGaussianBlur stdDeviation="5" result="effect1_foregroundBlur_1495_10748"/>
</filter>
<filter id="filter1_f_1495_10748" x="13.5742" y="13" width="88.9648" height="102.112" filterUnits="userSpaceOnUse" color-interpolation-filters="sRGB">
<feFlood flood-opacity="0" result="BackgroundImageFix"/>
<feBlend mode="normal" in="SourceGraphic" in2="BackgroundImageFix" result="shape"/>
<feGaussianBlur stdDeviation="1" result="effect1_foregroundBlur_1495_10748"/>
</filter>
<filter id="filter2_f_1495_10748" x="9.57422" y="9" width="96.9648" height="110.112" filterUnits="userSpaceOnUse" color-interpolation-filters="sRGB">
<feFlood flood-opacity="0" result="BackgroundImageFix"/>
<feBlend mode="normal" in="SourceGraphic" in2="BackgroundImageFix" result="shape"/>
<feGaussianBlur stdDeviation="3" result="effect1_foregroundBlur_1495_10748"/>
</filter>
<filter id="filter3_f_1495_10748" x="0.574219" y="0" width="114.965" height="128.112" filterUnits="userSpaceOnUse" color-interpolation-filters="sRGB">
<feFlood flood-opacity="0" result="BackgroundImageFix"/>
<feBlend mode="normal" in="SourceGraphic" in2="BackgroundImageFix" result="shape"/>
<feGaussianBlur stdDeviation="7.5" result="effect1_foregroundBlur_1495_10748"/>
</filter>
</defs>
</svg>
