<svg width="35" height="29" viewBox="0 0 35 29" fill="none" xmlns="http://www.w3.org/2000/svg">
<path d="M0 12.5C0 11.5717 0.368749 10.6815 1.02513 10.0251C1.6815 9.36875 2.57174 9 3.5 9H31.5C32.4283 9 33.3185 9.36875 33.9749 10.0251C34.6312 10.6815 35 11.5717 35 12.5V24.75C35 25.6783 34.6312 26.5685 33.9749 27.2249C33.3185 27.8813 32.4283 28.25 31.5 28.25H24.731C24.1266 28.25 23.5325 28.0935 23.0065 27.7957C22.4806 27.4979 22.0407 27.069 21.7297 26.5507L18.9998 22.0008C18.8442 21.742 18.6243 21.5279 18.3615 21.3793C18.0987 21.2307 17.8019 21.1526 17.5 21.1526C17.1981 21.1526 16.9013 21.2307 16.6385 21.3793C16.3757 21.5279 16.1558 21.742 16.0002 22.0008L13.2703 26.5507C12.9593 27.069 12.5194 27.4979 11.9935 27.7957C11.4675 28.0935 10.8734 28.25 10.269 28.25H3.5C2.57174 28.25 1.6815 27.8813 1.02513 27.2249C0.368749 26.5685 0 25.6783 0 24.75V12.5Z" fill="#F11010"/>
<path d="M3.17275 4.11675C3.81183 3.15826 4.67758 2.37231 5.69322 1.82862C6.70886 1.28493 7.84299 1.00031 8.995 1H26.0015C27.1538 1.00002 28.2883 1.28451 29.3043 1.82821C30.3202 2.37191 31.1863 3.15801 31.8255 4.11675L33.25 6.25H1.75L3.17275 4.11675Z" fill="#F11010"/>
<path d="M3.5 6.25H31.5M3.17275 4.11675C3.81183 3.15826 4.67758 2.37231 5.69322 1.82862C6.70886 1.28493 7.84299 1.00031 8.995 1H26.0015C27.1538 1.00002 28.2883 1.28451 29.3043 1.82821C30.3202 2.37191 31.1863 3.15801 31.8255 4.11675L33.25 6.25H1.75L3.17275 4.11675Z" stroke="#F11010" stroke-opacity="0.2" stroke-width="2" stroke-linecap="round" stroke-linejoin="round"/>
</svg>
