<svg width="23" height="21" viewBox="0 0 23 21" fill="none" xmlns="http://www.w3.org/2000/svg">
<path d="M6.69239 7.94876H6.70375H6.69239ZM11.2338 7.94876H11.2452H11.2338ZM15.7752 7.94876H15.7866H15.7752ZM7.82775 14.3868H3.28633C2.6841 14.3868 2.10654 14.1607 1.6807 13.7582C1.25486 13.3558 1.01563 12.8099 1.01562 12.2408V3.65675C1.01562 3.08759 1.25486 2.54175 1.6807 2.13929C2.10654 1.73684 2.6841 1.51074 3.28633 1.51074H19.1813C19.7835 1.51074 20.3611 1.73684 20.7869 2.13929C21.2128 2.54175 21.452 3.08759 21.452 3.65675V12.2408C21.452 12.8099 21.2128 13.3558 20.7869 13.7582C20.3611 14.1607 19.7835 14.3868 19.1813 14.3868H13.5045L7.82775 19.7518V14.3868Z" stroke="white" stroke-width="2" stroke-linecap="round" stroke-linejoin="round"/>
</svg>
